<?xml version="1.0" standalone="no"?>
<!DOCTYPE svg PUBLIC "-//W3C//DTD SVG 20010904//EN"
 "http://www.w3.org/TR/2001/REC-SVG-20010904/DTD/svg10.dtd">
<svg version="1.0" xmlns="http://www.w3.org/2000/svg"
 width="700.000000pt" height="700.000000pt" viewBox="0 0 700.000000 700.000000"
 preserveAspectRatio="xMidYMid meet">
<metadata>
Created by potrace 1.14, written by Peter Selinger 2001-2017
</metadata>
<g transform="translate(0.000000,700.000000) scale(0.100000,-0.100000)"
fill="#000000" stroke="none">
<path d="M2485 6500 c-27 -4 -75 -10 -105 -14 -136 -16 -347 -73 -524 -140
-169 -64 -441 -220 -571 -327 -228 -189 -368 -340 -516 -559 -125 -185 -247
-455 -305 -676 -103 -394 -104 -846 -2 -1209 21 -78 68 -220 78 -237 6 -10 10
-23 10 -29 0 -29 149 -311 224 -422 103 -155 176 -243 308 -373 115 -112 181
-168 281 -238 l68 -48 -45 -52 c-114 -133 -199 -303 -230 -461 -4 -16 -9 -41
-11 -55 -11 -51 -12 -217 -3 -285 58 -446 394 -796 842 -879 66 -12 337 -14
1820 -11 957 1 1757 5 1776 9 131 27 218 55 326 105 72 34 191 104 204 120 3
3 21 18 40 33 73 55 187 179 248 269 90 134 164 320 187 469 4 25 9 59 12 75
6 42 6 211 -1 266 -35 280 -155 525 -348 716 -92 91 -142 130 -238 189 -182
110 -373 164 -591 169 -115 2 -162 -2 -269 -21 -70 -13 -68 -15 -114 87 -24
53 -71 139 -105 192 l-61 94 19 46 c71 165 137 434 158 637 14 146 8 444 -12
565 -20 123 -30 172 -52 255 -49 186 -81 271 -175 460 -306 618 -876 1069
-1548 1228 -80 19 -104 24 -197 38 -21 3 -49 8 -63 11 -40 8 -460 11 -515 3z"/>
</g>
</svg>
